<svg width="101" height="101" viewBox="0 0 101 101" fill="none" xmlns="http://www.w3.org/2000/svg">
<path d="M37.1227 72.816C32.6862 72.816 29.4113 72.7377 26.3965 72.662C23.8361 72.6014 21.4626 72.5433 18.7129 72.5433C14.3974 72.5386 10.2599 70.8224 7.20817 67.7711C4.15642 64.7198 2.43955 60.5826 2.4342 56.2671C2.42398 53.6183 3.06504 51.0075 4.30098 48.6647C5.53691 46.3218 7.32982 44.3187 9.52188 42.8316C9.15683 41.0553 8.97324 39.2466 8.97395 37.4332C8.97395 22.6821 20.9753 10.6808 35.7289 10.6808C45.6067 10.6808 54.6537 16.1449 59.2922 24.7551C60.8033 23.2074 62.6097 21.9788 64.6044 21.1421C66.5992 20.3055 68.7416 19.8778 70.9046 19.8844C73.3773 19.8868 75.8171 20.4518 78.0391 21.5367C80.2612 22.6216 82.2072 24.1979 83.7297 26.1463C85.2523 28.0946 86.3116 30.3639 86.8272 32.7823C87.3429 35.2006 87.3015 37.7046 86.7061 40.1046C90.1211 41.0679 93.1281 43.12 95.2697 45.949C97.4114 48.778 98.5706 52.229 98.5711 55.7773C98.5664 60.0935 96.8499 64.2315 93.7981 67.2838C90.7464 70.336 86.6085 72.0531 82.2924 72.0585C78.0984 72.0585 75.1542 72.0913 72.2454 72.1191C69.4023 72.1494 66.5919 72.1797 62.6908 72.1797C62.356 72.1797 62.0348 72.0467 61.7981 71.8099C61.5613 71.5732 61.4283 71.252 61.4283 70.9172C61.4283 70.5824 61.5613 70.2612 61.7981 70.0245C62.0348 69.7877 62.356 69.6547 62.6908 69.6547C66.5818 69.6547 69.382 69.6244 72.2176 69.5941C75.134 69.5638 78.0882 69.5335 82.2924 69.5335C85.7181 69.5378 89.0221 68.2636 91.5577 65.9601C94.0934 63.6567 95.6782 60.4899 96.0019 57.0796C96.3256 53.6692 95.365 50.2608 93.308 47.5214C91.2511 44.782 88.2458 42.9088 84.8805 42.2685C84.703 42.2345 84.5349 42.1628 84.3874 42.0582C84.24 41.9537 84.1168 41.8186 84.0261 41.6623C83.9354 41.506 83.8792 41.332 83.8616 41.1522C83.8439 40.9723 83.865 40.7907 83.9235 40.6197C84.6305 38.5482 84.8334 36.338 84.5153 34.1724C84.1972 32.0069 83.3672 29.9484 82.0944 28.1677C80.8215 26.3871 79.1424 24.9356 77.1964 23.9337C75.2503 22.9318 73.0934 22.4084 70.9046 22.4069C68.7956 22.4005 66.7138 22.8825 64.8222 23.8151C62.9307 24.7478 61.2807 26.1057 60.0017 27.7826C59.8691 27.9567 59.6935 28.0932 59.4921 28.1786C59.2907 28.264 59.0704 28.2953 58.8532 28.2696C58.6359 28.2438 58.4292 28.1618 58.2533 28.0317C58.0774 27.9016 57.9385 27.7278 57.8504 27.5276C55.9329 23.2644 52.8261 19.645 48.9027 17.1038C44.9793 14.5625 40.4059 13.2073 35.7314 13.2007C22.3716 13.2007 11.5015 24.0683 11.5015 37.4281C11.5015 39.3471 11.7287 41.2611 12.1757 43.1144C12.2385 43.3749 12.2169 43.6487 12.1139 43.8961C12.0108 44.1435 11.8317 44.3517 11.6025 44.4905C9.56966 45.7082 7.88854 47.4336 6.72426 49.4975C5.55998 51.5613 4.95258 53.8925 4.96173 56.2621C4.96641 59.9081 6.41703 63.4034 8.99541 65.9813C11.5738 68.5592 15.0694 70.0092 18.7154 70.0132C21.4879 70.0132 23.879 70.0688 26.4596 70.1344C29.4593 70.2051 32.714 70.2859 37.1252 70.2859C37.4607 70.2863 37.7823 70.4199 38.0193 70.6573C38.2563 70.8948 38.3893 71.2167 38.3889 71.5522C38.3886 71.8877 38.255 72.2094 38.0175 72.4464C37.7801 72.6834 37.4582 72.8163 37.1227 72.816Z" fill="#C7C7CC"/>
<path d="M66.5337 56.7015C66.2069 56.7015 65.8928 56.5747 65.6575 56.348L48.5456 39.8471L31.5119 56.2798C31.2705 56.5122 30.9467 56.6391 30.6116 56.6327C30.2766 56.6263 29.9579 56.4871 29.7255 56.2457C29.4931 56.0043 29.3662 55.6804 29.3725 55.3454C29.3789 55.0104 29.5182 54.6916 29.7596 54.4593L47.6694 37.1857C47.9044 36.9586 48.2183 36.8314 48.5451 36.8309C48.8719 36.8305 49.1861 36.9567 49.4217 37.1832L67.4073 54.5274C67.5893 54.7018 67.7149 54.9266 67.768 55.1729C67.8211 55.4193 67.7992 55.6759 67.7053 55.9097C67.6113 56.1435 67.4495 56.3439 67.2407 56.485C67.0319 56.6261 66.7857 56.7015 66.5337 56.7015Z" fill="#C7C7CC"/>
<path d="M48.5457 90.3167C48.2109 90.3167 47.8897 90.1837 47.653 89.9469C47.4162 89.7102 47.2832 89.389 47.2832 89.0542V38.0947C47.2832 37.7598 47.4162 37.4387 47.653 37.2019C47.8897 36.9652 48.2109 36.8322 48.5457 36.8322C48.8805 36.8322 49.2017 36.9652 49.4384 37.2019C49.6752 37.4387 49.8082 37.7598 49.8082 38.0947V89.0567C49.8075 89.3911 49.6742 89.7116 49.4375 89.9478C49.2008 90.184 48.8801 90.3167 48.5457 90.3167Z" fill="#C7C7CC"/>
</svg>
